<svg width="184" height="28" viewBox="0 0 184 28" fill="none" xmlns="http://www.w3.org/2000/svg">
<path d="M0 0.499695H3.84869V4.36033H0V0.499695ZM23.1399 0.499695H7.70932V4.34838H19.2793V7.34844L14.4625 10.1334C11.4743 11.8545 9.64562 15.0339 9.64562 18.4881V21.8946L7.06389 20.4005C5.07979 19.2531 3.84869 17.1375 3.84869 14.8426V8.22097H0V15.2012C0 18.6435 1.84068 21.8348 4.81683 23.5559L9.64562 26.3409L11.6536 27.5003L13.5063 26.4365L18.3231 23.6516C21.3112 21.9304 23.1399 18.7511 23.1399 15.2968V0.499695ZM19.2912 14.9382C19.2912 17.2331 18.0601 19.3606 16.076 20.5081L13.5063 21.9902V18.8586C13.5063 16.5638 14.7254 14.4362 16.7215 13.2888L19.2912 11.8067V14.9382Z" fill="#F34653"/>
<path fill-rule="evenodd" clip-rule="evenodd" d="M135.963 8.19707C135.963 12.5597 132.724 15.8944 128.48 15.8944H122.672V0.499695H128.48C132.724 0.499695 135.963 3.84638 135.963 8.19707ZM132.676 8.19707C132.676 5.55558 131.002 3.82247 128.576 3.82247H125.935V12.5836H128.576C131.002 12.5836 132.676 10.8386 132.676 8.19707ZM85.2608 4.37221V15.9183H81.9858V14.5676C81.2687 15.3924 80.193 15.8944 78.7348 15.8944C75.8781 15.8944 73.5116 13.3844 73.5116 10.1333C73.5116 6.88223 75.8781 4.37221 78.7348 4.37221C80.193 4.37221 81.2687 4.87422 81.9858 5.69894V4.37221H85.2608ZM81.9858 10.1452C81.9858 8.50776 80.8982 7.47985 79.3802 7.47985C77.8622 7.47985 76.7865 8.50776 76.7865 10.1452C76.7865 11.7827 77.8742 12.8106 79.3802 12.8106C80.8862 12.8106 81.9858 11.7827 81.9858 10.1452ZM72.5434 4.37221V8.11333C71.1808 7.89818 69.2445 8.448 69.2445 10.6233V15.9183H65.9337V4.37221H69.2445V6.54756C69.6748 5.07741 71.1569 4.37221 72.5434 4.37221ZM156.139 15.9302L152.756 11.2568V15.9302H149.589V0.52353H152.756V8.99781L155.924 4.37221H159.617L155.768 9.96596L159.713 15.9183H156.139V15.9302ZM171.151 8.74681V15.9302H167.984V9.21295C167.984 7.89818 167.159 7.28861 166.143 7.28861C164.984 7.28861 164.183 7.9699 164.183 9.46395V15.9302H161.015V0.52353H164.195V5.66308C164.768 4.88617 165.82 4.37221 167.219 4.37221C169.334 4.37221 171.151 5.90213 171.151 8.74681ZM172.43 10.1452C172.43 6.89418 175.012 4.38417 178.215 4.38417C181.418 4.38417 184 6.89418 184 10.1452C184 13.3963 181.418 15.9063 178.215 15.9063C175.012 15.9063 172.43 13.3963 172.43 10.1452ZM180.725 10.1452C180.725 8.59142 179.637 7.56352 178.215 7.56352C176.793 7.56352 175.705 8.59142 175.705 10.1452C175.705 11.6991 176.793 12.727 178.215 12.727C179.637 12.727 180.737 11.6991 180.725 10.1452ZM144.677 12.5237C144.175 12.8225 143.602 12.9898 143.016 12.9779C141.809 12.9779 140.805 12.5954 140.398 11.4599H148.167C148.263 11.0296 148.299 10.5874 148.299 10.1451C148.299 6.84625 145.932 4.3721 142.741 4.3721C139.287 4.3721 136.92 6.88211 136.92 10.1451C136.92 13.4081 139.251 15.9182 142.98 15.9182C145.06 15.9182 146.685 15.1532 147.749 13.6591L144.677 12.5237ZM142.705 7.26459C143.685 7.26459 144.677 7.73073 145.024 8.99769H140.315C140.625 7.88611 141.462 7.26459 142.705 7.26459ZM116.098 12.9902C116.684 13.0021 117.257 12.8348 117.759 12.536L120.831 13.6714C119.767 15.1655 118.142 15.9305 116.062 15.9305C112.321 15.9305 110.002 13.4204 110.002 10.1574C110.002 6.89441 112.369 4.3844 115.823 4.3844C119.014 4.3844 121.381 6.85855 121.381 10.1574C121.381 10.5997 121.333 11.0419 121.249 11.4722H113.492C113.887 12.6077 114.891 12.9902 116.098 12.9902ZM118.106 9.00999C117.759 7.74303 116.767 7.27689 115.787 7.27689C114.544 7.27689 113.707 7.89841 113.397 9.00999H118.106ZM30.5907 15.9302V0.52353H27.0767V15.9302H30.5907ZM42.6866 15.9302V9.03367C42.6866 5.99775 40.7503 4.37221 38.4793 4.37221C36.9972 4.37221 35.8737 4.91007 35.2641 5.74675V4.37221H31.8935V15.9302H35.2641V9.79862C35.2641 8.197 36.1247 7.47985 37.3558 7.47985C38.4435 7.47985 39.316 8.12528 39.316 9.52372V15.9302H42.6866ZM97.3331 15.9302V9.03367C97.3331 5.99775 95.3968 4.37221 93.1259 4.37221C91.6438 4.37221 90.5202 4.91007 89.9107 5.74675V4.37221H86.5401V15.9302H89.9107V9.79862C89.9107 8.197 90.7712 7.47985 92.0023 7.47985C93.09 7.47985 93.9625 8.12528 93.9625 9.52372V15.9302H97.3331ZM48.352 15.9302C50.7186 15.9302 52.9059 14.8545 52.9059 12.3445C52.9059 9.74577 50.6885 9.15793 49.0981 8.73629C48.2087 8.50051 47.5154 8.31671 47.5154 7.86233C47.5154 7.4679 47.862 7.25275 48.4357 7.25275C49.1648 7.25275 49.5951 7.64718 49.9058 8.2209L52.7147 6.71489C51.7943 5.16108 50.2166 4.37221 48.4477 4.37221C46.1647 4.37221 44.1567 5.56746 44.1567 7.95795C44.1567 10.3708 46.3518 10.9837 47.9373 11.4264C48.8337 11.6767 49.5353 11.8726 49.5353 12.3086C49.5353 12.7509 49.1409 12.9899 48.352 12.9899C47.3839 12.9899 46.7743 12.5357 46.4874 11.6991L43.6428 13.3246C44.5033 15.0936 46.1647 15.9302 48.352 15.9302ZM64.6552 15.9183V4.37221H61.2846V10.5038C61.2846 12.1054 60.4359 12.8226 59.1929 12.8226C58.1052 12.8226 57.2327 12.1772 57.2327 10.7787V4.37221H53.8621V11.2688C53.8621 14.3047 55.7984 15.9183 58.0694 15.9183C59.5515 15.9183 60.675 15.3804 61.2846 14.5437V15.9183H64.6552ZM104.086 4.38417C100.763 4.38417 98.2893 6.89418 98.2893 10.1572C98.2893 13.4083 100.763 15.9302 104.098 15.9302C106.25 15.9302 108.102 14.8186 109.047 13.1094L106.178 11.472C105.819 12.2369 105.007 12.6911 104.05 12.6911C102.628 12.6911 101.564 11.6632 101.564 10.1572C101.564 8.65119 102.616 7.62328 104.038 7.62328C105.007 7.62328 105.795 8.07747 106.166 8.84243L109.035 7.18104C108.09 5.49574 106.214 4.38417 104.086 4.38417Z" fill="#333846"/>
</svg>
